<?xml version="1.0" encoding="utf-8"?>
<!-- Generator: Adobe Illustrator 16.0.0, SVG Export Plug-In . SVG Version: 6.00 Build 0)  -->
<!DOCTYPE svg PUBLIC "-//W3C//DTD SVG 1.1//EN" "http://www.w3.org/Graphics/SVG/1.1/DTD/svg11.dtd">
<svg version="1.1" id="图层_1" xmlns="http://www.w3.org/2000/svg" xmlns:xlink="http://www.w3.org/1999/xlink" x="0px" y="0px"
	 width="300px" height="300px" viewBox="0 0 300 300" enable-background="new 0 0 300 300" xml:space="preserve">
<g>
	<path fill-rule="evenodd" clip-rule="evenodd" fill="#0A0A0A" d="M130.417,0.688c0.725,0.18,1.458,0.347,2.172,0.548
		c6.165,1.773,10.282,7.265,10.289,13.85c0.021,17.688,0.007,35.379,0.007,53.071c0,20.105,0.014,40.209-0.007,60.316
		c-0.007,6.894-4.433,12.51-11.035,14.041c-1.128,0.254-2.315,0.344-3.474,0.344c-37.724,0.017-75.447,0.017-113.164,0.017
		c-7.317,0-12.988-4.734-14.321-11.937c-0.035-0.178-0.128-0.347-0.194-0.521c0-39.094,0-78.189,0-117.279
		c0.069-0.208,0.167-0.413,0.208-0.625C2.057,6.79,5.435,3.041,10.978,1.25c0.708-0.229,1.444-0.382,2.162-0.563
		C52.235,0.688,91.325,0.688,130.417,0.688z M71.895,7.778c-16.334,0-32.673-0.007-49.012,0.007
		c-1.166,0.007-2.346,0.048-3.485,0.278c-7.035,1.38-11.607,7.108-11.61,14.501c-0.003,32.819-0.003,65.648,0.011,98.467
		c0,1.052,0.063,2.124,0.264,3.155c1.392,6.994,7.123,11.604,14.394,11.604c32.861,0.003,65.718,0.003,98.582,0
		c8.583,0,14.759-6.161,14.759-14.78c0.014-32.822,0.014-65.648-0.014-98.47c0-1.42-0.166-2.881-0.524-4.25
		c-1.704-6.41-7.292-10.506-14.245-10.514C104.64,7.771,88.268,7.778,71.895,7.778z"/>
	<path fill-rule="evenodd" clip-rule="evenodd" fill="#0A0A0A" d="M299.311,130.411c-0.16,0.66-0.31,1.313-0.485,1.964
		c-1.614,6.109-7.233,10.49-13.572,10.49c-38.022,0.017-76.045,0.017-114.065,0c-7.682-0.004-14.023-6.241-14.045-13.944
		c-0.055-18.028-0.023-36.061-0.023-54.085c0-19.882-0.011-39.761,0.004-59.639c0.007-6.679,4.095-12.187,10.287-13.96
		c0.719-0.202,1.451-0.368,2.173-0.548c39.098,0,78.188,0,117.28,0c0.207,0.069,0.408,0.167,0.624,0.205
		c5.721,1.159,9.469,4.536,11.269,10.076c0.225,0.712,0.367,1.445,0.555,2.17C299.311,52.229,299.311,91.323,299.311,130.411z
		 M228.108,135.791c16.449,0,32.896,0.003,49.349,0c8.584,0,14.755-6.161,14.755-14.78c0.007-32.822,0.007-65.648-0.003-98.466
		c-0.007-1.052-0.063-2.121-0.268-3.148c-1.406-7.074-7.126-11.614-14.617-11.618c-32.748-0.003-65.496-0.003-98.244,0.007
		c-1.087,0.007-2.193,0.066-3.263,0.275c-7.066,1.398-11.614,7.129-11.614,14.62c-0.007,32.742-0.007,65.496,0.011,98.241
		c0,1.125,0.066,2.27,0.288,3.371c1.402,6.849,7.115,11.489,14.147,11.496C195.131,135.801,211.618,135.791,228.108,135.791z"/>
	<path fill-rule="evenodd" clip-rule="evenodd" fill="#0A0A0A" d="M0.689,169.581c0.163-0.652,0.312-1.309,0.486-1.961
		c1.61-6.105,7.237-10.493,13.579-10.493c38.022-0.013,76.044-0.013,114.066,0c7.771,0,14.03,6.297,14.051,14.172
		c0.038,18.221,0.014,36.44,0.014,54.663c0,19.425-0.104,38.852,0.049,58.274c0.063,8.563-6.082,14.203-12.218,14.919
		c-0.107,0.015-0.202,0.109-0.298,0.156c-39.091,0-78.182,0-117.277,0c-0.208-0.069-0.413-0.167-0.627-0.212
		c-5.721-1.159-9.466-4.529-11.261-10.072c-0.229-0.708-0.378-1.444-0.562-2.165C0.689,247.763,0.689,208.676,0.689,169.581z
		 M71.773,292.216c16.449,0,32.898,0.014,49.347-0.005c8.483-0.011,14.669-6.162,14.676-14.64c0.021-32.929,0.021-65.866,0-98.806
		c-0.01-8.396-6.259-14.554-14.641-14.558c-32.899-0.007-65.793-0.007-98.696,0c-8.449,0.004-14.662,6.179-14.669,14.638
		c-0.014,32.899-0.014,65.797,0.021,98.692c0,1.383,0.159,2.8,0.507,4.134c1.69,6.417,7.275,10.536,14.217,10.539
		C38.947,292.225,55.362,292.216,71.773,292.216z"/>
	<path fill-rule="evenodd" clip-rule="evenodd" fill="#0A0A0A" d="M169.583,299.312c-0.722-0.184-1.45-0.348-2.173-0.553
		c-6.039-1.727-10.263-7.194-10.274-13.504c-0.037-17.69-0.017-35.386-0.017-53.073c0-20.185-0.011-40.36,0.004-60.542
		c0.007-6.991,4.394-12.613,11.037-14.151c1.125-0.261,2.318-0.354,3.479-0.354c37.72-0.013,75.439-0.013,113.159-0.013
		c7.32,0,12.982,4.734,14.325,11.937c0.034,0.181,0.125,0.351,0.188,0.527c0,39.091,0,78.178,0,117.277
		c-0.066,0.205-0.164,0.407-0.205,0.621c-1.163,5.727-4.537,9.471-10.076,11.268c-0.708,0.225-1.445,0.377-2.166,0.561
		C247.771,299.312,208.681,299.312,169.583,299.312z M228.195,164.208c-16.411,0-32.822-0.011-49.236,0.011
		c-1.087,0-2.197,0.066-3.26,0.288c-6.886,1.416-11.485,7.08-11.488,14.259c-0.021,32.976-0.015,65.949,0.003,98.923
		c0,1.013,0.087,2.043,0.288,3.036c1.444,6.961,7.137,11.486,14.495,11.486c32.822,0.014,65.644,0.014,98.467-0.008
		c1.048,0,2.12-0.067,3.15-0.268c6.991-1.387,11.595-7.098,11.598-14.397c0.007-32.896,0.007-65.793-0.003-98.692
		c-0.007-1.017-0.069-2.048-0.268-3.037c-1.379-6.914-7.091-11.593-14.172-11.597C261.244,164.197,244.721,164.208,228.195,164.208z
		"/>
</g>
</svg>
