<?xml version="1.0" encoding="utf-8"?>
<!-- Generator: Adobe Illustrator 16.0.0, SVG Export Plug-In . SVG Version: 6.00 Build 0)  -->
<!DOCTYPE svg PUBLIC "-//W3C//DTD SVG 1.1//EN" "http://www.w3.org/Graphics/SVG/1.1/DTD/svg11.dtd">
<svg version="1.1" id="图层_1" xmlns="http://www.w3.org/2000/svg" xmlns:xlink="http://www.w3.org/1999/xlink" x="0px" y="0px"
	 width="300px" height="300px" viewBox="0 0 300 300" enable-background="new 0 0 300 300" xml:space="preserve">
<g>
	<path fill-rule="evenodd" clip-rule="evenodd" fill="#0A0A0A" d="M298.888,32.376c-0.08,0.222-0.181,0.433-0.239,0.662
		c-0.651,2.613-2.842,4.356-5.523,4.391c-0.17,0.003-0.34,0.003-0.506,0.003c-66.262,0-132.522-0.007-198.78,0.014
		c-2.332,0-4.186-0.759-5.427-2.748c-2.023-3.243-0.312-7.534,3.379-8.57c0.253-0.069,0.499-0.173,0.749-0.263
		c67.085,0,134.175,0,201.261,0c1.414,0.443,2.858,0.922,3.711,2.225c0.575,0.877,0.926,1.903,1.376,2.862
		C298.888,31.427,298.888,31.902,298.888,32.376z"/>
	<path fill-rule="evenodd" clip-rule="evenodd" fill="#0A0A0A" d="M92.54,270.676c-0.218-0.084-0.426-0.188-0.651-0.246
		c-2.769-0.749-4.668-3.431-4.301-6.103c0.423-3.146,2.675-5.216,5.739-5.216c18.685-0.007,37.371-0.003,56.056-0.003
		c47.306,0,94.611,0,141.913,0c4.824,0,5.829,0.665,7.593,5.052c0,0.475,0,0.95,0,1.425c-0.488,1.511-1.022,3.028-2.457,3.901
		c-0.817,0.492-1.753,0.798-2.63,1.189C226.715,270.676,159.625,270.676,92.54,270.676z"/>
	<path fill-rule="evenodd" clip-rule="evenodd" fill="#0A0A0A" d="M298.888,189.888c-0.087,0.208-0.19,0.416-0.253,0.638
		c-0.669,2.453-2.668,4.093-5.216,4.252c-0.54,0.034-1.084,0.034-1.625,0.034c-65.752,0-131.503,0-197.255-0.007
		c-0.911,0-1.851,0.014-2.727-0.197c-2.624-0.642-4.491-3.278-4.252-5.843c0.284-3.063,2.405-5.205,5.35-5.396
		c0.51-0.034,1.019-0.038,1.525-0.038c65.821-0.004,131.642-0.004,197.459,0.004c0.877,0,1.788-0.024,2.627,0.187
		c2.138,0.551,3.486,1.985,4.113,4.097c0.065,0.218,0.166,0.426,0.253,0.641C298.888,188.8,298.888,189.34,298.888,189.888z"/>
	<path fill-rule="evenodd" clip-rule="evenodd" fill="#0A0A0A" d="M298.888,108.285c-0.087,0.208-0.19,0.416-0.253,0.634
		c-0.669,2.45-2.668,4.093-5.216,4.252c-0.544,0.035-1.084,0.038-1.628,0.038c-65.749,0-131.5,0-197.252-0.014
		c-1.04,0-2.128-0.031-3.112-0.322c-2.495-0.738-4.162-3.417-3.836-5.912c0.385-2.963,2.419-4.99,5.223-5.188
		c0.541-0.042,1.081-0.045,1.625-0.045c65.817-0.003,131.639-0.003,197.456,0.003c0.877,0,1.788-0.024,2.627,0.187
		c2.138,0.551,3.486,1.986,4.113,4.096c0.065,0.218,0.166,0.426,0.253,0.641C298.888,107.197,298.888,107.738,298.888,108.285z"/>
	<path fill-rule="evenodd" clip-rule="evenodd" fill="#0A0A0A" d="M0.559,264.16c0.076-0.184,0.177-0.363,0.222-0.558
		c0.686-2.769,2.821-4.491,5.635-4.491c15.417-0.007,30.835-0.007,46.249,0c3.077,0,5.357,2.104,5.725,5.209
		c0.329,2.796-1.525,5.381-4.377,6.123c-0.19,0.045-0.364,0.152-0.544,0.232c-15.941,0-31.881-0.004-47.822-0.004
		c-1.414-0.443-2.859-0.915-3.711-2.222c-0.576-0.876-0.925-1.905-1.376-2.865C0.559,265.113,0.559,264.635,0.559,264.16z"/>
	<path fill-rule="evenodd" clip-rule="evenodd" fill="#0A0A0A" d="M53.468,25.865c0.18,0.076,0.354,0.184,0.544,0.232
		c2.852,0.738,4.706,3.323,4.377,6.123c-0.364,3.095-2.648,5.202-5.725,5.205c-15.414,0.01-30.831,0.007-46.249,0
		c-2.811,0-4.949-1.729-5.635-4.491c-0.045-0.194-0.146-0.374-0.222-0.558c0-0.475,0-0.949,0-1.424
		c0.492-1.549,1.001-2.869,2.335-3.957c0.811-0.666,2.052-1.133,2.752-1.133C21.586,25.862,37.527,25.865,53.468,25.865z"/>
	<path fill-rule="evenodd" clip-rule="evenodd" fill="#0A0A0A" d="M0.559,188.259c0.083-0.181,0.187-0.354,0.239-0.541
		c0.686-2.592,2.651-4.206,5.333-4.362c0.371-0.021,0.742-0.028,1.116-0.028c14.853,0,29.705-0.003,44.561,0.011
		c0.808,0,1.646,0.007,2.419,0.212c2.682,0.699,4.46,3.302,4.172,5.978c-0.322,3.011-2.422,5.063-5.368,5.25
		c-0.375,0.024-0.749,0.034-1.123,0.034c-14.922,0-29.84-0.01-44.762,0.014c-1.917,0-3.715-0.308-4.945-1.86
		c-0.714-0.895-1.105-2.045-1.643-3.077C0.559,189.34,0.559,188.8,0.559,188.259z"/>
	<path fill-rule="evenodd" clip-rule="evenodd" fill="#0A0A0A" d="M0.559,106.653c0.083-0.177,0.187-0.35,0.239-0.538
		c0.686-2.588,2.654-4.207,5.333-4.363c0.336-0.021,0.676-0.024,1.016-0.024c14.921,0,29.84-0.007,44.762,0.007
		c0.776,0,1.577,0.014,2.315,0.208c2.682,0.703,4.463,3.306,4.176,5.981c-0.322,3.008-2.422,5.063-5.368,5.25
		c-0.34,0.021-0.679,0.031-1.019,0.035c-14.991,0-29.979-0.017-44.966,0.014c-2.651,0.003-4.686-0.905-5.877-3.358
		c-0.25-0.509-0.409-1.053-0.61-1.583C0.559,107.738,0.559,107.197,0.559,106.653z"/>
</g>
</svg>
